<?xml version="1.0" encoding="UTF-8"?>
<svg version="1.1" xmlns="http://www.w3.org/2000/svg" width="500" height="230">
<path d="M0 0 C165 0 330 0 500 0 C500 75.9 500 151.8 500 230 C335 230 170 230 0 230 C0 154.1 0 78.2 0 0 Z " fill="#FDFDFD" transform="translate(0,0)"/>
<path d="M0 0 C13.2 0 26.4 0 40 0 C40 0.99 40 1.98 40 3 C39.07767578 3.12955078 39.07767578 3.12955078 38.13671875 3.26171875 C36.92435547 3.47248047 36.92435547 3.47248047 35.6875 3.6875 C34.88699219 3.81511719 34.08648437 3.94273438 33.26171875 4.07421875 C29.98886565 5.41388401 29.46141043 6.76929773 28 10 C27.53323619 13.36806199 27.51122268 16.71661789 27.48828125 20.11328125 C27.47164429 20.97320679 27.45500732 21.83313232 27.43786621 22.71911621 C27.3802413 25.91666464 27.34785773 29.11462783 27.3125 32.3125 C27.209375 39.469375 27.10625 46.62625 27 54 C44.16 54 61.32 54 79 54 C79 38.82 79 23.64 79 8 C78.34 8 77.68 8 77 8 C76.01 6.515 76.01 6.515 75 5 C72.81494871 4.20562077 72.81494871 4.20562077 70.375 3.8125 C69.55773437 3.65394531 68.74046875 3.49539062 67.8984375 3.33203125 C67.27195312 3.22246094 66.64546875 3.11289063 66 3 C66 2.01 66 1.02 66 0 C79.2 0 92.4 0 106 0 C106 0.99 106 1.98 106 3 C102.7 3.66 99.4 4.32 96 5 C94.31798146 9.41588133 93.73453802 13.1158081 93.68115234 17.83154297 C93.67110672 18.48590836 93.6610611 19.14027374 93.65071106 19.81446838 C93.62005338 21.95703325 93.60289317 24.0994742 93.5859375 26.2421875 C93.56721177 27.73577935 93.54763731 29.22936078 93.5272522 30.72293091 C93.47607322 34.63877194 93.43637173 38.55464721 93.39910889 42.47064209 C93.3589796 46.47270073 93.30792812 50.47461866 93.2578125 54.4765625 C93.16122185 62.31761899 93.07777403 70.15873427 93 78 C88.05 78 83.1 78 78 78 C78 71.07 78 64.14 78 57 C61.5 57 45 57 28 57 C28 63.93 28 70.86 28 78 C23.05 78 18.1 78 13 78 C12.97494385 75.86490967 12.9498877 73.72981934 12.92407227 71.5300293 C12.84065185 64.48119079 12.75195903 57.43242576 12.66066074 50.38368511 C12.60546101 46.10941329 12.55204569 41.83513458 12.50268555 37.56079102 C12.45499853 33.43698459 12.4026541 29.31326134 12.34705925 25.18955421 C12.32665537 23.61509073 12.30793903 22.04060446 12.29092598 20.46610069 C12.26683842 18.263368 12.23678989 16.06079219 12.20532227 13.8581543 C12.18977798 12.60350876 12.1742337 11.34886322 12.15821838 10.05619812 C12.13404296 6.95753304 12.13404296 6.95753304 11 4 C7.37 3.67 3.74 3.34 0 3 C0 2.01 0 1.02 0 0 Z " fill="#090909" transform="translate(307,61)"/>
<path d="M0 0 C13.2 0 26.4 0 40 0 C40 0.99 40 1.98 40 3 C39.07767578 3.12955078 39.07767578 3.12955078 38.13671875 3.26171875 C36.92435547 3.47248047 36.92435547 3.47248047 35.6875 3.6875 C34.88699219 3.81511719 34.08648437 3.94273438 33.26171875 4.07421875 C29.98886565 5.41388401 29.46141043 6.76929773 28 10 C27.53323619 13.36806199 27.51122268 16.71661789 27.48828125 20.11328125 C27.47164429 20.97320679 27.45500732 21.83313232 27.43786621 22.71911621 C27.3802413 25.91666464 27.34785773 29.11462783 27.3125 32.3125 C27.209375 39.469375 27.10625 46.62625 27 54 C44.16 54 61.32 54 79 54 C79 38.82 79 23.64 79 8 C78.34 8 77.68 8 77 8 C76.01 6.515 76.01 6.515 75 5 C72.81494871 4.20562077 72.81494871 4.20562077 70.375 3.8125 C69.55773437 3.65394531 68.74046875 3.49539062 67.8984375 3.33203125 C67.27195312 3.22246094 66.64546875 3.11289063 66 3 C66 2.01 66 1.02 66 0 C79.2 0 92.4 0 106 0 C106 0.99 106 1.98 106 3 C102.7 3.66 99.4 4.32 96 5 C94.31798146 9.41588133 93.73453802 13.1158081 93.68115234 17.83154297 C93.67110672 18.48590836 93.6610611 19.14027374 93.65071106 19.81446838 C93.62005338 21.95703325 93.60289317 24.0994742 93.5859375 26.2421875 C93.56721177 27.73577935 93.54763731 29.22936078 93.5272522 30.72293091 C93.47607322 34.63877194 93.43637173 38.55464721 93.39910889 42.47064209 C93.3589796 46.47270073 93.30792812 50.47461866 93.2578125 54.4765625 C93.16122185 62.31761899 93.07777403 70.15873427 93 78 C88.05 78 83.1 78 78 78 C78 71.07 78 64.14 78 57 C61.5 57 45 57 28 57 C28 63.93 28 70.86 28 78 C23.05 78 18.1 78 13 78 C12.97494385 75.86490967 12.9498877 73.72981934 12.92407227 71.5300293 C12.84065185 64.48119079 12.75195903 57.43242576 12.66066074 50.38368511 C12.60546101 46.10941329 12.55204569 41.83513458 12.50268555 37.56079102 C12.45499853 33.43698459 12.4026541 29.31326134 12.34705925 25.18955421 C12.32665537 23.61509073 12.30793903 22.04060446 12.29092598 20.46610069 C12.26683842 18.263368 12.23678989 16.06079219 12.20532227 13.8581543 C12.18977798 12.60350876 12.1742337 11.34886322 12.15821838 10.05619812 C12.13404296 6.95753304 12.13404296 6.95753304 11 4 C7.37 3.67 3.74 3.34 0 3 C0 2.01 0 1.02 0 0 Z " fill="#090909" transform="translate(189,61)"/>
<path d="M0 0 C1.32 0 2.64 0 4 0 C7.99976846 9.21629497 11.82366523 18.37959018 14.9375 27.9375 C16.396517 32.35893174 18.05709135 36.57343705 20 40.80078125 C22.70943188 46.75941463 24.97829489 52.83943895 27 59.0625 C28.46009674 63.54667062 30.14389992 67.80469783 32.16796875 72.0625 C33 74 33 74 34 78 C28.72 78 23.44 78 18 78 C16 71 16 71 16 69 C3.13 69 -9.74 69 -23 69 C-23.66 71.97 -24.32 74.94 -25 78 C-26.32 78 -27.64 78 -29 78 C-27.80574597 70.59562501 -24.90760959 63.63535514 -22.09765625 56.72265625 C-19.9957219 51.50896145 -18.00976578 46.24975182 -16 41 C-13.43638611 34.30352977 -10.85797943 27.61630428 -8.1796875 20.96484375 C-5.40644941 13.99501689 -2.71217785 6.99376199 0 0 Z " fill="#0E0E0E" transform="translate(135,61)"/>
<path d="M0 0 C2 1 2 1 2.74609375 3.14453125 C3.20497018 4.91522393 3.66330846 6.68605616 4.12109375 8.45703125 C5.04677074 11.13532335 6.30151937 12.75907267 8 15 C8.80859375 17.26171875 8.80859375 17.26171875 9.4375 19.6875 C10.62436408 23.92541258 12.17099862 27.77058163 14.015625 31.7578125 C18 40.83333333 18 40.83333333 18 45 C6.45 45 -5.1 45 -17 45 C-16.28428153 41.42140765 -15.68833076 38.97768736 -14.3125 35.75 C-12.0484737 30.26345452 -10.1049067 24.68278183 -8.19458008 19.06542969 C-6.74185227 14.86034405 -5.06238748 10.95479798 -3 7 C-2.42364064 5.71445773 -1.85804571 4.42391836 -1.3125 3.125 C-0.879375 2.09375 -0.44625 1.0625 0 0 Z " fill="#F3F3F3" transform="translate(131,82)"/>
<path d="M0 0 C2.14151917 1.62477209 2.89935883 2.49951418 3.43359375 5.15625 C3.44402315 11.41388944 3.44402315 11.41388944 1.4375 14.0625 C-1.98493728 15.37882203 -4.36549727 15.51921468 -8 15 C-11.21279089 12.28148463 -11.90640581 10.59276322 -12.5625 6.4375 C-12 3 -12 3 -9.9375 0.5 C-6.10621033 -1.45640324 -4.1000774 -1.13891039 0 0 Z " fill="#414141" transform="translate(225,153)"/>
<path d="M0 0 C0.33333333 1.33333333 0.66666667 2.66666667 1 4 C1.31710938 4.91458984 1.31710938 4.91458984 1.640625 5.84765625 C2.10860096 8.6504253 1.43616061 10.0934731 0.3125 12.6875 C-0.06132812 13.56664063 -0.43515625 14.44578125 -0.8203125 15.3515625 C-1.89269243 17.75909095 -2.97571007 20.16145248 -4.0625 22.5625 C-5.71895549 26.23776062 -7.04401577 29.94437339 -8.2734375 33.78125 C-9.40317564 37.23120304 -10.70524144 40.60896569 -12 44 C-12.66 43.67 -13.32 43.34 -14 43 C-14.99 43.99 -15.98 44.98 -17 46 C-15.33955797 40.08782004 -13.43738529 34.37829936 -11.1015625 28.69921875 C-9.85671673 25.64890518 -8.67613695 22.57743809 -7.5 19.5 C-5.64457967 14.65529137 -3.74559144 9.83133625 -1.796875 5.0234375 C-1.14522312 3.36875282 -0.56237279 1.68711837 0 0 Z " fill="#474747" transform="translate(129,76)"/>
<path d="M0 0 C0.33 1.32 0.66 2.64 1 4 C-0.98 4.99 -0.98 4.99 -3 6 C-2.01 7.485 -2.01 7.485 -1 9 C0.65 8.67 2.3 8.34 4 8 C4 10.31 4 12.62 4 15 C2.20866022 15.05391993 0.41686101 15.09275571 -1.375 15.125 C-2.37273437 15.14820313 -3.37046875 15.17140625 -4.3984375 15.1953125 C-7 15 -7 15 -9 13 C-8.77581849 10.26498553 -8.46404764 7.69147634 -8 5 C-7.855625 4.030625 -7.71125 3.06125 -7.5625 2.0625 C-7.376875 1.381875 -7.19125 0.70125 -7 0 C-4.3333581 -1.33332095 -2.83319697 -0.67102033 0 0 Z " fill="#363636" transform="translate(149,153)"/>
<path d="M0 0 C0.99 0 1.98 0 3 0 C3 2.31 3 4.62 3 7 C4.98 7 6.96 7 9 7 C9 4.69 9 2.38 9 0 C9.99 0 10.98 0 12 0 C12 5.28 12 10.56 12 16 C11.01 16 10.02 16 9 16 C9 13.69 9 11.38 9 9 C7.02 9 5.04 9 3 9 C3 11.64 3 14.28 3 17 C2.01 17 1.02 17 0 17 C0 11.39 0 5.78 0 0 Z " fill="#575757" transform="translate(193,152)"/>
<path d="M0 0 C0.99 0 1.98 0 3 0 C3 2.31 3 4.62 3 7 C5.31 7 7.62 7 10 7 C10 4.69 10 2.38 10 0 C10.99 0 11.98 0 13 0 C13 5.28 13 10.56 13 16 C12.01 16 11.02 16 10 16 C10 13.69 10 11.38 10 9 C7.69 9 5.38 9 3 9 C3 11.31 3 13.62 3 16 C2.01 16 1.02 16 0 16 C0 10.72 0 5.44 0 0 Z " fill="#4B4B4B" transform="translate(305,152)"/>
<path d="M0 0 C1.86328125 0.23828125 1.86328125 0.23828125 4 1 C6.94942598 5.44754712 8.45904788 10.72571683 9 16 C8.01 15.67 7.02 15.34 6 15 C5.67 14.01 5.34 13.02 5 12 C3.02 12 1.04 12 -1 12 C-1.33 13.32 -1.66 14.64 -2 16 C-2.99 16 -3.98 16 -5 16 C-4.19429304 12.50577615 -3.08208283 9.14682647 -1.9375 5.75 C-1.57527344 4.67234375 -1.21304688 3.5946875 -0.83984375 2.484375 C-0.56269531 1.66453125 -0.28554687 0.8446875 0 0 Z " fill="#404040" transform="translate(165,152)"/>
<path d="M0 0 C1.86328125 0.23828125 1.86328125 0.23828125 4 1 C6.94942598 5.44754712 8.45904788 10.72571683 9 16 C8.01 15.67 7.02 15.34 6 15 C5.67 14.01 5.34 13.02 5 12 C3.02 12 1.04 12 -1 12 C-1.33 13.32 -1.66 14.64 -2 16 C-2.99 16 -3.98 16 -5 16 C-4.19429304 12.50577615 -3.08208283 9.14682647 -1.9375 5.75 C-1.57527344 4.67234375 -1.21304688 3.5946875 -0.83984375 2.484375 C-0.56269531 1.66453125 -0.28554687 0.8446875 0 0 Z " fill="#404040" transform="translate(124,152)"/>
<path d="M0 0 C2.5 0.25 2.5 0.25 4.5 2.25 C5.06140351 9.32368421 5.06140351 9.32368421 3.25 12.3125 C1.5 13.25 1.5 13.25 -0.5625 13.0625 C-2.5 12.25 -2.5 12.25 -4.5 10.25 C-4.765625 8.375 -4.765625 8.375 -4.75 6.25 C-4.75515625 5.54875 -4.7603125 4.8475 -4.765625 4.125 C-4.31971142 0.97737476 -3.03899237 0.30389924 0 0 Z " fill="#F4F4F4" transform="translate(220.5,153.75)"/>
<path d="M0 0 C0.99 0 1.98 0 3 0 C3.33 4.29 3.66 8.58 4 13 C5.32 13.33 6.64 13.66 8 14 C9.87824891 12.12175109 9.39102397 8.96064724 9.5625 6.4375 C9.64628906 5.23996094 9.73007813 4.04242188 9.81640625 2.80859375 C9.87699219 1.88175781 9.93757812 0.95492187 10 0 C10.99 0 11.98 0 13 0 C13.0810206 2.10353495 13.13919907 4.20795952 13.1875 6.3125 C13.22230469 7.48425781 13.25710937 8.65601563 13.29296875 9.86328125 C13 13 13 13 11.7421875 14.89453125 C8.49493335 16.95500866 5.7652416 16.35859444 2 16 C-0.42130331 12.36804504 -0.21022785 10.61650652 -0.125 6.3125 C-0.09792969 4.54326172 -0.09792969 4.54326172 -0.0703125 2.73828125 C-0.04710937 1.83464844 -0.02390625 0.93101562 0 0 Z " fill="#4E4E4E" transform="translate(236,152)"/>
<path d="M0 0 C0.99 0 1.98 0 3 0 C3.33 4.29 3.66 8.58 4 13 C5.65 13.33 7.3 13.66 9 14 C10.87824891 12.12175109 10.39102397 8.96064724 10.5625 6.4375 C10.64628906 5.23996094 10.73007812 4.04242188 10.81640625 2.80859375 C10.87699219 1.88175781 10.93757813 0.95492187 11 0 C11.99 0 12.98 0 14 0 C14.10841951 1.91541138 14.18578079 3.83259773 14.25 5.75 C14.29640625 6.81734375 14.3428125 7.8846875 14.390625 8.984375 C14 12 14 12 12.20703125 14.359375 C9.01859663 16.72953879 6.86444722 16.56210141 3 16 C0.58479959 13.6734308 0.03352878 12.34512289 -0.29296875 8.984375 C-0.25816406 7.91703125 -0.22335937 6.8496875 -0.1875 5.75 C-0.14689453 4.13351563 -0.14689453 4.13351563 -0.10546875 2.484375 C-0.07066406 1.66453125 -0.03585937 0.8446875 0 0 Z " fill="#494949" transform="translate(326,152)"/>
<path d="M0 0 C5.18742743 2.59371371 6.13253595 5.0615897 9 10 C9.33 6.7 9.66 3.4 10 0 C10.66 0 11.32 0 12 0 C12 5.28 12 10.56 12 16 C8.69713914 14.89904638 8.21489099 14.3103981 6.3125 11.5625 C5.87550781 10.94503906 5.43851562 10.32757813 4.98828125 9.69140625 C4 8 4 8 4 6 C3.34 6 2.68 6 2 6 C2 9.3 2 12.6 2 16 C1.34 16 0.68 16 0 16 C0 10.72 0 5.44 0 0 Z " fill="#333333" transform="translate(348,152)"/>
<path d="M0 0 C0.66 0.99 1.32 1.98 2 3 C-0.31 2.67 -2.62 2.34 -5 2 C-4.96044102 3.92309422 -4.96044102 3.92309422 -4 6 C-3.01 6.474375 -2.02 6.94875 -1 7.4375 C2 9 2 9 3 11.5625 C3 12.366875 3 13.17125 3 14 C1 16 1 16 -0.9453125 16.1953125 C-2.96354167 16.13020833 -4.98177083 16.06510417 -7 16 C-7.33 15.01 -7.66 14.02 -8 13 C-7.01 13 -6.02 13 -5 13 C-5 13.66 -5 14.32 -5 15 C-3.35 14.67 -1.7 14.34 0 14 C-1.11666174 10.65001479 -1.74694925 10.20659778 -4.5625 8.3125 C-5.20316406 7.87550781 -5.84382813 7.43851563 -6.50390625 6.98828125 C-6.99761719 6.66214844 -7.49132812 6.33601562 -8 6 C-7.625 3.5625 -7.625 3.5625 -7 1 C-4.46578263 -0.26710868 -2.80561762 -0.28056176 0 0 Z " fill="#464646" transform="translate(265,152)"/>
<path d="M0 0 C4.29 0 8.58 0 13 0 C13 0.66 13 1.32 13 2 C11.35 2 9.7 2 8 2 C8 6.62 8 11.24 8 16 C7.01 16 6.02 16 5 16 C5 11.38 5 6.76 5 2 C3.35 2 1.7 2 0 2 C0 1.34 0 0.68 0 0 Z " fill="#525252" transform="translate(368,152)"/>
<path d="M0 0 C3.3 0 6.6 0 10 0 C10 0.33 10 0.66 10 1 C7.69 1.33 5.38 1.66 3 2 C2.67 3.65 2.34 5.3 2 7 C4.64 7 7.28 7 10 7 C10 7.66 10 8.32 10 9 C7.36 9 4.72 9 2 9 C2 10.98 2 12.96 2 15 C4.64 15 7.28 15 10 15 C10 15.33 10 15.66 10 16 C6.7 16 3.4 16 0 16 C0 10.72 0 5.44 0 0 Z " fill="#454545" transform="translate(276,152)"/>
<path d="M0 0 C0.5 2 0.5 2 1 4 C1.21269531 4.60199219 1.42539063 5.20398438 1.64453125 5.82421875 C2.11790815 8.72170154 1.37140744 10.3686843 0.25 13.0625 C-0.09546875 13.91972656 -0.4409375 14.77695313 -0.796875 15.66015625 C-1.96264917 17.92735991 -3.09652606 19.33172543 -5 21 C-6.66622404 17.66755192 -4.73754963 14.42677906 -3.625 11.0625 C-3.39039062 10.33353516 -3.15578125 9.60457031 -2.9140625 8.85351562 C-1.9600274 5.89654888 -0.9825344 2.9476032 0 0 Z " fill="#1F1F1F" transform="translate(129,76)"/>
<path d="M0 0 C4.5 2.25 4.5 2.25 6 6 C4.68 6 3.36 6 2 6 C2 9.3 2 12.6 2 16 C1.34 16 0.68 16 0 16 C0 10.72 0 5.44 0 0 Z " fill="#393939" transform="translate(348,152)"/>
<path d="M0 0 C0 2.31 0 4.62 0 7 C-3.63 7 -7.26 7 -11 7 C-10.67 5.02 -10.34 3.04 -10 1 C-8.0625 1.8125 -8.0625 1.8125 -6 3 C-5.67 3.99 -5.34 4.98 -5 6 C-4.01 6 -3.02 6 -2 6 C-2 5.01 -2 4.02 -2 3 C-2.99 2.67 -3.98 2.34 -5 2 C-2 0 -2 0 0 0 Z " fill="#9C9C9C" transform="translate(153,161)"/>
<path d="M0 0 C1.125 3.75 1.125 3.75 0 6 C0.66 6 1.32 6 2 6 C1.34 8.64 0.68 11.28 0 14 C-1.32 14 -2.64 14 -4 14 C-3.21824485 9.15311808 -1.60155722 4.6233633 0 0 Z " fill="#454545" transform="translate(110,125)"/>
<path d="M0 0 C0.99 0.33 1.98 0.66 3 1 C2.34 1 1.68 1 1 1 C1 1.99 1 2.98 1 4 C1.66 4 2.32 4 3 4 C3.33 5.98 3.66 7.96 4 10 C1.69 10 -0.62 10 -3 10 C-2.01 6.7 -1.02 3.4 0 0 Z " fill="#919191" transform="translate(165,152)"/>
<path d="M0 0 C0.99 0.33 1.98 0.66 3 1 C2.34 1 1.68 1 1 1 C1 1.99 1 2.98 1 4 C1.66 4 2.32 4 3 4 C3.33 5.98 3.66 7.96 4 10 C1.69 10 -0.62 10 -3 10 C-2.01 6.7 -1.02 3.4 0 0 Z " fill="#919191" transform="translate(124,152)"/>
<path d="M0 0 C-2 2 -2 2 -4.5625 2.0625 C-5.7690625 2.0315625 -5.7690625 2.0315625 -7 2 C-8.96822886 3.96822886 -8.66248381 7.34808709 -9 10 C-9.99 10 -10.98 10 -12 10 C-12.3125 6.75 -12.3125 6.75 -12 3 C-8.2764518 -1.51339176 -5.47398896 -1.2879974 0 0 Z " fill="#595959" transform="translate(225,153)"/>
<path d="M0 0 C1.60080151 4.00200378 0.29279692 7.04556236 -1 11 C-1.66 10.67 -2.32 10.34 -3 10 C-3.99 10.99 -4.98 11.98 -6 13 C-4.75696561 7.82069003 -3.14512215 4.29833361 0 0 Z " fill="#363636" transform="translate(118,109)"/>
<path d="M0 0 C0.33 0 0.66 0 1 0 C1.28875 0.94875 1.5775 1.8975 1.875 2.875 C2.76825109 6.05211578 2.76825109 6.05211578 5 8 C7.26274788 7.64644564 8.95088852 7.02455574 11 6 C10.67 7.32 10.34 8.64 10 10 C3.65492958 10.35915493 3.65492958 10.35915493 1.0625 8.9375 C-0.55479605 5.98831309 -0.18630138 3.29132441 0 0 Z " fill="#3B3B3B" transform="translate(214,158)"/>
<path d="M0 0 C0.598125 0.20625 1.19625 0.4125 1.8125 0.625 C1.1525 2.275 0.4925 3.925 -0.1875 5.625 C-1.5075 5.625 -2.8275 5.625 -4.1875 5.625 C-4.5175 4.305 -4.8475 2.985 -5.1875 1.625 C-2.1875 -0.375 -2.1875 -0.375 0 0 Z " fill="#949494" transform="translate(146.1875,152.375)"/>
<path d="M0 0 C0.33 1.32 0.66 2.64 1 4 C1.226875 4.639375 1.45375 5.27875 1.6875 5.9375 C2.11269334 8.74377606 1.19127863 10.47729232 0 13 C-0.33 12.01 -0.66 11.02 -1 10 C-1.66 10 -2.32 10 -3 10 C-2.01 6.7 -1.02 3.4 0 0 Z " fill="#4D4D4D" transform="translate(129,76)"/>
<path d="M0 0 C0.33 0 0.66 0 1 0 C1.218934 3.83134499 0.80266269 6.58442859 -1 10 C-1.99 10.33 -2.98 10.66 -4 11 C-3.49172849 6.62886504 -2.54826592 3.61004338 0 0 Z " fill="#171717" transform="translate(115,117)"/>
<path d="M0 0 C0.33 0.66 0.66 1.32 1 2 C1.66 2.33 2.32 2.66 3 3 C2.34 3 1.68 3 1 3 C1 4.65 1 6.3 1 8 C0.01 7.67 -0.98 7.34 -2 7 C-1.125 2.25 -1.125 2.25 0 0 Z " fill="#515151" transform="translate(142,159)"/>
<path d="M0 0 C0.66 0.99 1.32 1.98 2 3 C-0.31 2.67 -2.62 2.34 -5 2 C-5.33 3.32 -5.66 4.64 -6 6 C-6.33 4.35 -6.66 2.7 -7 1 C-4.46578263 -0.26710868 -2.80561762 -0.28056176 0 0 Z " fill="#585858" transform="translate(265,152)"/>
<path d="M0 0 C0.78375 0.04125 1.5675 0.0825 2.375 0.125 C1.1684375 0.929375 1.1684375 0.929375 -0.0625 1.75 C-3.09008424 4.55605369 -3.35010809 6.09325194 -3.625 10.125 C-3.955 10.125 -4.285 10.125 -4.625 10.125 C-4.8203125 4.0703125 -4.8203125 4.0703125 -4.625 2.125 C-2.625 0.125 -2.625 0.125 0 0 Z " fill="#CDCDCD" transform="translate(220.625,153.875)"/>
</svg>
